<?xml version="1.0" encoding="UTF-8"?>
<svg width="752pt" height="752pt" version="1.1" viewBox="0 0 752 752" xmlns="http://www.w3.org/2000/svg">
 <g>
  <path d="m376 568.39c-51.023 0-99.961-20.27-136.04-56.352-36.082-36.082-56.352-85.016-56.352-136.04 0-51.023 20.27-99.961 56.352-136.04 36.078-36.082 85.016-56.352 136.04-56.352 51.027 0 99.961 20.27 136.04 56.352 36.082 36.078 56.352 85.016 56.352 136.04 0 51.027-20.27 99.961-56.352 136.04s-85.016 56.352-136.04 56.352zm0-355.19c-43.176 0-84.582 17.152-115.11 47.684-30.531 30.527-47.684 71.934-47.684 115.11s17.152 84.586 47.684 115.11c30.527 30.531 71.934 47.68 115.11 47.68s84.586-17.148 115.11-47.68c30.531-30.527 47.68-71.938 47.68-115.11s-17.148-84.582-47.68-115.11c-30.527-30.531-71.938-47.684-115.11-47.684z"/>
  <path d="m376 183.61c-51.023 0-99.961 20.27-136.04 56.352-36.082 36.078-56.352 85.016-56.352 136.04 0 51.027 20.27 99.961 56.352 136.04 36.078 36.082 85.016 56.352 136.04 56.352 51.027 0 99.961-20.27 136.04-56.352s56.352-85.016 56.352-136.04c0-51.023-20.27-99.961-56.352-136.04-36.082-36.082-85.016-56.352-136.04-56.352zm0 88.797c15.703 0 30.758 6.2344 41.859 17.34 11.102 11.102 17.34 26.156 17.34 41.855 0 15.703-6.2383 30.758-17.34 41.859-11.102 11.102-26.156 17.34-41.859 17.34-15.699 0-30.758-6.2383-41.859-17.34-11.102-11.102-17.336-26.156-17.336-41.859 0-15.699 6.2344-30.754 17.336-41.855 11.102-11.105 26.16-17.34 41.859-17.34zm0 266.39v-0.003906c-43.348-0.023438-84.895-17.336-115.43-48.098 11.84-40.695 59.199-70.297 115.43-70.297 56.238 0 103.6 29.598 115.43 70.297h0.003906c-30.539 30.762-72.09 48.074-115.44 48.098z"/>
 </g>
</svg>
