<svg width="36" height="52" viewBox="0 0 36 52" fill="none" xmlns="http://www.w3.org/2000/svg">
<path d="M31.1 0H4.9C2.16 0 0 2.8 0 6.36V18C0 18.5304 0.210714 19.0391 0.585787 19.4142C0.96086 19.7893 1.46957 20 2 20C2.53043 20 3.03914 19.7893 3.41421 19.4142C3.78929 19.0391 4 18.5304 4 18V6.36C3.94969 5.92328 4.0052 5.48087 4.16185 5.07011C4.31849 4.65936 4.57167 4.29232 4.9 4H31.08C31.3 4 32 4.86 32 6.36V45.64C32.0503 46.0767 31.9948 46.5191 31.8382 46.9299C31.6815 47.3406 31.4283 47.7077 31.1 48H4.92C4.7 48 4 47.14 4 45.64V34C4 33.4696 3.78929 32.9609 3.41421 32.5858C3.03914 32.2107 2.53043 32 2 32C1.46957 32 0.96086 32.2107 0.585787 32.5858C0.210714 32.9609 0 33.4696 0 34V45.64C0 49.2 2.16 52 4.9 52H31.1C33.84 52 36 49.2 36 45.64V6.36C36 2.8 33.84 0 31.1 0Z" fill="#03435F"/>
</svg>
